<svg width="154" height="16" viewBox="0 0 154 16" fill="none" xmlns="http://www.w3.org/2000/svg">
<path d="M35.4491 15.3432V0.569946H41.181C42.3453 0.569946 43.2822 0.71648 43.9918 1.01621C44.6945 1.31594 45.2457 1.77552 45.6452 2.39495C46.0448 3.01439 46.2446 3.66713 46.2446 4.34651C46.2446 4.97927 46.0655 5.57207 45.7141 6.13156C45.3628 6.69105 44.8254 7.13731 44.1089 7.48366C45.0321 7.74342 45.7417 8.18969 46.2377 8.82244C46.7338 9.4552 46.9818 10.2012 46.9818 11.0604C46.9818 11.7531 46.8302 12.3925 46.5271 12.992C46.2239 13.5914 45.8519 14.0444 45.4041 14.3641C44.9563 14.6838 44.4052 14.9302 43.73 15.0967C43.0618 15.2633 42.235 15.3432 41.2637 15.3432H35.4491ZM37.4677 6.77764H40.7676C41.6632 6.77764 42.3039 6.71769 42.6966 6.60446C43.2133 6.45793 43.5991 6.21148 43.8609 5.87179C44.1227 5.5321 44.2536 5.09916 44.2536 4.57963C44.2536 4.08675 44.1296 3.66047 43.8885 3.28748C43.6473 2.91448 43.296 2.66138 42.8482 2.52151C42.3935 2.38163 41.6219 2.31503 40.5265 2.31503H37.4745V6.77764H37.4677ZM37.4677 13.5981H41.2705C41.925 13.5981 42.3797 13.5715 42.6484 13.5248C43.1169 13.4449 43.5027 13.3117 43.8127 13.1252C44.1227 12.9387 44.3845 12.6656 44.5843 12.3059C44.7841 11.9463 44.8874 11.5333 44.8874 11.0604C44.8874 10.5076 44.7427 10.028 44.4465 9.62172C44.1572 9.21542 43.7507 8.92901 43.234 8.7625C42.7173 8.59598 41.9733 8.51606 41.0019 8.51606H37.4677V13.5981Z" fill="#263238" fill-opacity="0.5"/>
<path d="M50.0199 15.3432V0.569946H61.0635V2.31503H52.0454V6.83758H60.4985V8.56934H52.0454V13.5981H61.4217V15.3432H50.0199Z" fill="#263238" fill-opacity="0.5"/>
<path d="M65.5415 0.569946H75.1039V15.3365H73.0853V2.31503H67.5601V9.92145C67.5601 11.4667 67.4843 12.599 67.3327 13.3184C67.1812 14.0377 66.8712 14.5972 66.3889 14.9968C65.9067 15.3965 65.3004 15.5963 64.5632 15.5963C64.1154 15.5963 63.585 15.5164 62.958 15.3565L63.3025 13.6247C63.6332 13.758 63.9225 13.8246 64.1568 13.8246C64.6184 13.8246 64.9559 13.658 65.1902 13.325C65.4175 12.992 65.5346 12.206 65.5346 10.9738V0.569946H65.5415Z" fill="#263238" fill-opacity="0.5"/>
<path d="M78.0318 8.14977C78.0318 5.69867 78.7138 3.78041 80.071 2.39501C81.4351 1.0096 83.1919 0.316895 85.3413 0.316895C86.7536 0.316895 88.0213 0.643264 89.158 1.296C90.2878 1.94874 91.1559 2.85459 91.7484 4.02019C92.3409 5.1858 92.6371 6.5046 92.6371 7.98326C92.6371 9.4819 92.3271 10.8207 91.7001 11.9996C91.0732 13.1785 90.1914 14.0777 89.0409 14.6838C87.8973 15.29 86.6572 15.5963 85.3344 15.5963C83.8946 15.5963 82.6132 15.2633 81.4764 14.5906C80.3466 13.9179 79.4854 13.0054 78.8999 11.8398C78.3212 10.6741 78.0318 9.44859 78.0318 8.14977ZM80.1124 8.17642C80.1124 9.9548 80.6084 11.3602 81.6005 12.3793C82.5925 13.405 83.8326 13.9179 85.3276 13.9179C86.8501 13.9179 88.1039 13.3983 89.0822 12.3659C90.0674 11.3335 90.5565 9.86155 90.5565 7.96328C90.5565 6.76437 90.343 5.71199 89.9227 4.81281C89.5025 3.91362 88.8893 3.22092 88.0764 2.72804C87.2703 2.23515 86.361 1.98871 85.3482 1.98871C83.9153 1.98871 82.689 2.46161 81.6556 3.41408C80.6291 4.36655 80.1124 5.95843 80.1124 8.17642Z" fill="#263238" fill-opacity="0.5"/>
<path d="M94.7728 10.5942L96.6811 10.4344C96.7706 11.1737 96.9842 11.7798 97.3149 12.2527C97.6456 12.7256 98.1554 13.1119 98.8512 13.3983C99.547 13.6914 100.326 13.8379 101.194 13.8379C101.965 13.8379 102.647 13.7247 103.233 13.5049C103.825 13.2851 104.259 12.9787 104.549 12.5924C104.838 12.2061 104.983 11.7865 104.983 11.3269C104.983 10.8606 104.845 10.461 104.569 10.1147C104.294 9.7683 103.832 9.47524 103.191 9.24211C102.778 9.08892 101.876 8.84914 100.47 8.52277C99.0648 8.1964 98.0865 7.89001 97.5216 7.6036C96.7913 7.23727 96.2471 6.77769 95.8888 6.23152C95.5306 5.68535 95.3515 5.07257 95.3515 4.39319C95.3515 3.6472 95.5719 2.94784 96.0059 2.30176C96.4468 1.65568 97.0807 1.16279 97.9212 0.823101C98.7617 0.49007 99.6986 0.316895 100.725 0.316895C101.855 0.316895 102.854 0.490071 103.722 0.843083C104.59 1.1961 105.251 1.71562 105.72 2.40167C106.188 3.08771 106.436 3.86034 106.471 4.72622L104.535 4.86609C104.432 3.93361 104.08 3.22758 103.474 2.74802C102.875 2.26845 101.986 2.03533 100.815 2.03533C99.5953 2.03533 98.6996 2.25513 98.1416 2.68807C97.5836 3.12101 97.3011 3.64054 97.3011 4.25332C97.3011 4.78617 97.5009 5.2191 97.8936 5.56546C98.2794 5.90515 99.299 6.25816 100.939 6.61783C102.578 6.97751 103.708 7.29056 104.321 7.55698C105.21 7.95662 105.865 8.45616 106.292 9.06228C106.712 9.66839 106.925 10.3678 106.925 11.1604C106.925 11.9463 106.691 12.6857 106.23 13.385C105.761 14.0777 105.093 14.6239 104.225 15.0102C103.35 15.3965 102.372 15.5897 101.283 15.5897C99.8984 15.5897 98.741 15.3965 97.8109 15.0035C96.874 14.6172 96.1437 14.0311 95.6132 13.2451C95.0759 12.4725 94.8003 11.5866 94.7728 10.5942Z" fill="#263238" fill-opacity="0.5"/>
<path d="M109.971 15.3432V0.569946H111.989V6.63776H119.932V0.569946H121.951V15.3365H119.932V8.38284H111.989V15.3432H109.971Z" fill="#263238" fill-opacity="0.5"/>
<path d="M124.913 8.14977C124.913 5.69867 125.595 3.78041 126.953 2.39501C128.317 1.0096 130.073 0.316895 132.223 0.316895C133.635 0.316895 134.903 0.643264 136.04 1.296C137.169 1.94874 138.037 2.85459 138.63 4.02019C139.222 5.1858 139.519 6.5046 139.519 7.98326C139.519 9.4819 139.209 10.8207 138.582 11.9996C137.955 13.1785 137.073 14.0777 135.922 14.6838C134.779 15.29 133.539 15.5963 132.216 15.5963C130.776 15.5963 129.495 15.2633 128.358 14.5906C127.228 13.9179 126.367 13.0054 125.781 11.8398C125.21 10.6741 124.913 9.44859 124.913 8.14977ZM127.001 8.17642C127.001 9.9548 127.497 11.3602 128.489 12.3793C129.481 13.405 130.721 13.9179 132.216 13.9179C133.739 13.9179 134.992 13.3983 135.971 12.3659C136.956 11.3335 137.445 9.86155 137.445 7.96328C137.445 6.76437 137.231 5.71199 136.811 4.81281C136.391 3.91362 135.778 3.22092 134.965 2.72804C134.159 2.23515 133.249 1.98871 132.237 1.98871C130.804 1.98871 129.577 2.46161 128.544 3.41408C127.518 4.36655 127.001 5.95843 127.001 8.17642Z" fill="#263238" fill-opacity="0.5"/>
<path d="M142.343 15.3432V0.569946H148.103C149.115 0.569946 149.894 0.616571 150.424 0.70982C151.175 0.829711 151.802 1.06283 152.312 1.40252C152.822 1.74221 153.228 2.21512 153.538 2.82789C153.848 3.44067 154 4.11339 154 4.8394C154 6.09825 153.587 7.15729 152.76 8.02983C151.933 8.90237 150.438 9.33531 148.282 9.33531H144.362V15.3365H142.343V15.3432ZM144.362 7.59689H148.309C149.618 7.59689 150.542 7.36377 151.093 6.89087C151.644 6.41796 151.913 5.75856 151.913 4.906C151.913 4.28657 151.754 3.76038 151.43 3.32078C151.106 2.88118 150.679 2.58811 150.156 2.44824C149.818 2.36165 149.184 2.31503 148.268 2.31503H144.362V7.59689Z" fill="#263238" fill-opacity="0.5"/>
<rect x="18" y="1.59631" width="13" height="13" rx="6.5" stroke="#263238" stroke-opacity="0.5" stroke-width="2"/>
<rect x="1" y="1.59631" width="13" height="13" rx="6.5" stroke="#263238" stroke-opacity="0.5" stroke-width="2"/>
</svg>
