<svg width="220" height="24" viewBox="0 0 220 24" fill="none" xmlns="http://www.w3.org/2000/svg">
<g id="Group">
<path id="Vector" d="M28.6509 0.215942L26.0956 4.44801L14.3255 23.8894L2.55528 4.44801L0 0.215942H5.62777L8.19842 4.44801L14.3255 14.5836L20.4525 4.44801L23.0232 0.215942H28.6509Z" fill="white"/>
<path id="Vector_2" d="M61.6982 6.73406V6.6084C61.6982 5.41346 60.5307 4.44376 59.1097 4.44376H47.7056C46.2872 4.44376 45.135 5.41346 45.135 6.6084V6.73406C45.135 7.92899 46.2872 8.89869 47.7056 8.89869H57.8064C60.4104 8.89869 62.748 9.83994 64.3687 11.3455C64.5019 11.4427 64.6017 11.5565 64.7042 11.6679C65.9562 12.9601 66.7064 14.6055 66.7064 16.3907C66.7064 20.5232 62.7173 23.8686 57.8064 23.8686H49.0063C44.098 23.8686 40.1243 20.5232 40.1243 16.3907H45.1324C45.1324 18.1903 46.8684 19.6531 49.0063 19.6531H57.8064C59.9444 19.6531 61.6957 18.1903 61.6957 16.3907C61.6957 14.5912 59.9418 13.1284 57.8064 13.1284H47.7056C45.6522 13.1284 43.8164 12.4527 42.4619 11.3431C42.0932 11.0491 41.7604 10.7243 41.4762 10.3592C40.6235 9.33256 40.1243 8.08073 40.1243 6.73168V6.60603C40.1243 3.07812 43.5142 0.20932 47.7056 0.20932H59.1097C63.3011 0.20932 66.7064 3.07812 66.7064 6.60603V6.73168H61.6982V6.73406Z" fill="white"/>
<path id="Vector_3" d="M97.508 0.229248V4.44946H85.9632V23.8885H80.9499V4.44946H69.405V0.229248H97.508Z" fill="white"/>
<path id="Vector_4" d="M106.546 6.60808V9.96765L121.719 9.95105L124.328 14.1855H106.546V17.4905C106.546 18.6855 107.698 19.6694 109.117 19.6694H129.636V23.8872H109.117C104.925 23.8872 101.535 21.0208 101.535 17.4905V6.61044C101.535 3.08254 104.925 0.213745 109.117 0.213745H129.636V4.43158H109.117C107.701 4.42921 106.546 5.41314 106.546 6.60808Z" fill="white"/>
<path id="Vector_5" d="M136.472 12.0471C136.472 16.2507 140.53 19.6672 145.52 19.6672H154.564V15.1316H145.308L142.701 10.9446L159.58 10.909V23.8826H145.52C137.757 23.8826 131.461 18.5837 131.461 12.0471C131.461 5.51049 137.755 0.211517 145.52 0.211517H159.58V4.42936H145.52C140.528 4.42699 136.472 7.84347 136.472 12.0471Z" fill="white"/>
<path id="Vector_6" d="M186.026 19.7857L188.889 23.8826H183.264L180.457 19.7454L179.259 18.1095L178.23 16.7415C177.434 15.7813 175.434 14.6693 173.613 14.6693H168.605V23.885H163.597V0.211517H181.336C183.44 0.211517 185.327 0.927534 186.695 2.08217C188.064 3.24865 188.914 4.85138 188.914 6.60822C188.914 9.19488 187.094 13.095 184.472 14.0932C183.789 14.3611 183.054 14.5436 182.286 14.6124C182.283 14.6124 182.28 14.6124 182.278 14.6124L186.026 19.7857ZM181.333 10.4515C181.702 10.4515 182.05 10.3946 182.385 10.2547C183.32 9.90378 183.845 8.61401 183.845 7.61348C183.845 6.61296 183.609 5.56265 183.125 5.11455C182.764 4.78025 182.219 4.42699 181.333 4.42699H168.61V10.4515H181.333Z" fill="white"/>
<g id="Group_2">
<path id="Vector_7" d="M218.569 21.5187C215.99 17.2558 210.788 8.65891 208.45 4.79434C207.526 3.26747 206.601 1.74061 205.677 0.213745C204.74 1.75958 203.805 3.30541 202.868 4.85361C203.782 6.38284 204.694 7.91207 205.608 9.44368C205.608 9.44368 209.751 16.279 211.804 19.6575C212.662 21.0682 213.517 22.4789 214.375 23.8896H220C219.813 23.5767 219.293 22.7184 218.569 21.5187ZM204.233 11.9521L196.974 23.8872H191.349C194.217 19.1359 198.511 12.0232 201.381 7.27193L204.233 11.9521Z" fill="#960300"/>
</g>
<g id="Group_3">
<path id="Vector_8" d="M31.0879 23.8918V5.30859L36.1012 9.39603V23.8941H31.0879V23.8918Z" fill="white"/>
<path id="Vector_9" d="M31.0879 2.94381L36.1012 7.02888V0.105835H31.0879V2.94381Z" fill="#960300"/>
</g>
</g>
</svg>
